<?xml version='1.0' encoding='utf-8'?>
<!-- Generator: Adobe Illustrator 27.4.1, SVG Export Plug-In . SVG Version: 6.00 Build 0)  -->
<svg id="Ebene_1" style="enable-background:new 0 0 36 36;" version="1.1" viewBox="0 0 36 36" x="0px" xml:space="preserve" xmlns="http://www.w3.org/2000/svg" xmlns:xlink="http://www.w3.org/1999/xlink" y="0px">
 <style type="text/css">
	.st0{fill:none;stroke:#c2e812;stroke-width:1.25;stroke-linecap:round;stroke-linejoin:round;}
</style>
 <g id="Layer_1_00000164480402023664264550000005579164745978908337_"/>
 <g id="Layer_1"/>
 <polyline class="st0" points="13.2,5.9 13.2,4.2 22.8,4.2 22.8,12.7 "/>
 <g id="Layer_2_copy">
  <polyline class="st0" points="1.5,1.5 27.5,27.5 34.5,34.5  "/>
 </g>
 <g id="Layer_2_copy_00000149341336810275411550000003313666467199870356_">
  <path class="st0" d="M9.4,2.1"/>
 </g>
 <path class="st0" d="M27.7,27.7h-1.8c-0.7,0-1.4-0.3-2-0.8l-3.6-3.4c-0.5-0.5-1.2-0.8-2-0.8c0.1,0-0.3,0-0.3,0h-0.4  c-0.7,0-1.4,0.3-2,0.8L12,26.9c-0.5,0.5-1.2,0.8-2,0.8H6c-1.7,0-3-1.3-3-3v-9c0-1.7,1.3-3,3-3h6.7"/>
 <path class="st0" d="M19.9,12.7H30c1.7,0,3,1.3,3,3v9.8"/>
</svg>
