<svg fill="none" height="1041" viewBox="0 0 1041 1041" width="1041" xmlns="http://www.w3.org/2000/svg">
 <g clip-path="url(#clip0_234_8)">
  <path clip-rule="evenodd" d="M734.858 396.712L749.895 405.291L937.117 512.701L879.808 611.318L692.552 503.946L593.935 673.629L781.172 781.065L723.885 879.657L536.629 772.27L521.622 763.628L319.353 879.636L262.05 781.023L449.255 673.629L350.638 503.927L163.391 611.318L106.066 512.701L293.324 405.291L308.359 396.692V165.183H422.982V379.931L620.231 379.95L620.247 165.183L734.886 165.149L734.858 396.712ZM431.158 467.467L521.622 623.057L612.059 467.467H431.158Z" fill="white" fill-rule="evenodd"/>
  <path clip-rule="evenodd" d="M464.308 337.526H578.935V165.182H464.308V337.526Z" fill="white" fill-rule="evenodd"/>
  <path clip-rule="evenodd" d="M241.373 745.485L391.643 659.27L334.304 560.66L184.031 646.881L241.373 745.485Z" fill="white" fill-rule="evenodd"/>
  <path clip-rule="evenodd" d="M859.141 646.881L708.897 560.679L651.588 659.309L801.861 745.527L859.141 646.881Z" fill="white" fill-rule="evenodd"/>
  <g clip-path="url(#clip1_234_8)">
   <path d="M1001.05 159.813C994.46 153.214 983.759 153.219 977.16 159.813L869.634 267.343L821.844 219.553C815.245 212.954 804.548 212.954 797.949 219.553C791.35 226.152 791.35 236.849 797.949 243.448L857.684 303.183C860.982 306.481 865.306 308.134 869.63 308.134C873.954 308.134 878.282 306.485 881.579 303.183L1001.05 183.708C1007.65 177.114 1007.65 166.412 1001.05 159.813Z" fill="white"/>
  </g>
 </g>
 <defs>
  <clipPath id="clip0_234_8">
   <rect fill="white" height="1041" width="1041"/>
  </clipPath>
  <clipPath id="clip1_234_8">
   <rect fill="white" height="213" transform="translate(793 125)" width="213"/>
  </clipPath>
 </defs>
</svg>
