<svg fill="none" height="1041" viewBox="0 0 1041 1041" width="1041" xmlns="http://www.w3.org/2000/svg">
 <g clip-path="url(#clip0_234_2)">
  <path clip-rule="evenodd" d="M734.858 396.712L749.895 405.291L937.117 512.701L879.808 611.318L692.552 503.946L593.935 673.629L781.172 781.065L723.885 879.657L536.629 772.27L521.622 763.628L319.353 879.636L262.05 781.023L449.255 673.629L350.638 503.927L163.391 611.318L106.066 512.701L293.324 405.291L308.359 396.692V165.183H422.982V379.931L620.231 379.95L620.247 165.183L734.886 165.149L734.858 396.712ZM431.158 467.467L521.622 623.057L612.059 467.467H431.158Z" fill="white" fill-rule="evenodd"/>
  <path clip-rule="evenodd" d="M464.308 337.526H578.935V165.182H464.308V337.526Z" fill="white" fill-rule="evenodd"/>
  <path clip-rule="evenodd" d="M241.373 745.485L391.643 659.27L334.304 560.66L184.031 646.881L241.373 745.485Z" fill="white" fill-rule="evenodd"/>
  <path clip-rule="evenodd" d="M859.141 646.881L708.897 560.679L651.588 659.309L801.861 745.527L859.141 646.881Z" fill="white" fill-rule="evenodd"/>
 </g>
 <defs>
  <clipPath id="clip0_234_2">
   <rect fill="white" height="1041" width="1041"/>
  </clipPath>
 </defs>
</svg>
